<?xml version="1.0" standalone="no"?>
<!DOCTYPE svg PUBLIC "-//W3C//DTD SVG 20010904//EN"
 "http://www.w3.org/TR/2001/REC-SVG-20010904/DTD/svg10.dtd">
<svg version="1.0" xmlns="http://www.w3.org/2000/svg"
 width="800.000000pt" height="800.000000pt" viewBox="0 0 800.000000 800.000000"
 preserveAspectRatio="xMidYMid meet">
<metadata>
Created by potrace 1.14, written by Peter Selinger 2001-2017
</metadata>
<g transform="translate(0.000000,800.000000) scale(0.100000,-0.100000)"
fill="#000000" stroke="none">
<path d="M2180 6468 c-115 -57 -167 -135 -195 -293 -12 -70 -16 -91 -20 -105
-3 -9 -57 -32 -137 -58 -114 -37 -374 -156 -460 -209 -26 -17 -28 -17 -75 17
-26 19 -49 38 -51 42 -2 4 -10 8 -17 8 -7 0 -15 3 -17 8 -4 10 -82 52 -110 59
-13 3 -52 6 -88 6 -70 0 -134 -22 -180 -62 -14 -12 -34 -30 -45 -40 -65 -58
-186 -195 -206 -232 -30 -60 -46 -126 -42 -178 3 -51 67 -190 115 -249 43 -54
43 -53 -31 -205 -71 -145 -146 -332 -156 -387 -1 -3 -4 -14 -8 -25 -3 -11 -8
-33 -11 -49 -5 -30 -20 -45 -46 -47 -60 -4 -171 -33 -224 -59 -54 -26 -107
-82 -142 -150 -28 -54 -29 -58 -30 -230 -1 -242 14 -297 106 -387 47 -46 102
-67 272 -102 l56 -12 13 -52 c13 -57 55 -191 69 -222 5 -11 18 -42 29 -70 25
-66 79 -179 112 -235 14 -25 25 -53 23 -62 -1 -9 -20 -42 -41 -75 -95 -140
-98 -148 -98 -258 0 -93 2 -104 29 -149 40 -65 262 -288 316 -316 95 -48 214
-32 328 47 135 93 115 90 210 34 29 -17 59 -31 67 -31 7 0 15 -4 17 -9 3 -7
180 -91 203 -95 10 -2 66 -22 100 -37 11 -4 40 -13 65 -20 67 -17 85 -28 88
-52 2 -23 5 -36 15 -77 4 -14 9 -38 11 -55 9 -59 16 -77 40 -119 46 -78 137
-145 221 -160 40 -8 290 -8 335 0 103 18 224 124 246 219 12 49 40 192 43 217
1 3 16 9 34 13 47 10 170 52 266 92 96 39 285 135 301 154 3 3 23 16 45 29 42
25 44 27 85 61 14 12 44 35 68 52 23 17 42 34 42 39 0 4 4 8 9 8 15 0 180 168
266 271 60 72 215 315 215 337 0 5 7 15 15 22 9 7 14 15 11 17 -2 3 10 35 28
71 35 71 76 175 85 214 1 4 8 23 17 43 8 19 12 35 9 35 -3 0 -2 8 4 18 11 22
48 199 57 277 3 33 8 67 9 76 2 9 6 70 10 135 11 180 12 194 19 259 8 68 39
190 63 250 23 57 66 149 73 155 3 3 14 21 24 40 103 187 336 381 560 465 142
53 215 64 406 60 96 -2 192 -8 214 -15 21 -6 47 -13 57 -15 81 -16 256 -103
358 -178 60 -44 178 -160 220 -217 14 -19 28 -37 32 -40 28 -25 120 -206 147
-293 47 -146 54 -189 57 -365 3 -207 -27 -351 -110 -527 -127 -268 -339 -462
-630 -576 -35 -14 -27 -12 -85 -28 -109 -31 -299 -42 -442 -26 -202 23 -435
140 -613 308 l-69 66 -19 -52 c-22 -62 -24 -69 -25 -81 0 -5 -4 -12 -9 -15 -4
-3 -14 -24 -22 -46 -7 -22 -29 -71 -47 -110 -19 -38 -34 -76 -34 -82 0 -7 -4
-13 -10 -13 -5 0 -10 -6 -10 -13 0 -7 -11 -29 -25 -50 -14 -20 -23 -37 -21
-37 7 0 -106 -175 -177 -274 -64 -89 -65 -82 13 -136 19 -13 37 -27 40 -30 10
-13 129 -90 139 -90 5 0 11 -4 13 -9 5 -14 212 -119 315 -160 54 -22 135 -49
180 -61 90 -25 85 -19 98 -116 3 -22 10 -55 15 -72 5 -18 6 -32 2 -32 -3 0 -1
-5 6 -12 7 -7 12 -19 12 -27 0 -8 14 -38 31 -66 45 -75 118 -121 224 -141 49
-10 266 -6 322 5 153 30 238 136 270 336 17 106 5 94 149 140 71 23 139 47
149 52 11 6 49 23 85 39 36 16 105 51 155 78 85 48 121 58 134 38 9 -13 119
-86 171 -113 64 -33 175 -32 245 1 67 32 290 256 325 325 34 70 34 208 0 275
-25 50 -88 148 -107 168 -7 7 -13 19 -13 26 0 7 28 69 62 137 35 68 68 138 75
154 41 103 57 148 80 224 14 47 25 92 26 98 1 21 30 41 67 47 191 30 287 84
342 196 21 41 23 61 26 252 3 190 2 211 -17 252 -25 58 -73 118 -122 151 -33
24 -57 33 -134 50 -60 14 -73 17 -108 22 -21 3 -40 9 -43 14 -2 4 -13 41 -23
81 -36 141 -181 485 -226 538 -11 13 -4 29 43 101 97 146 96 142 95 264 0 120
-17 149 -199 331 -113 115 -165 145 -253 148 -101 4 -151 -18 -304 -130 -40
-30 -39 -30 -117 17 -54 33 -179 94 -240 119 -30 12 -66 27 -80 32 -44 19 -64
25 -143 49 -43 12 -80 26 -83 31 -3 4 -7 22 -9 40 -8 65 -34 176 -48 211 -23
54 -93 123 -156 154 -55 27 -60 28 -241 28 -201 0 -234 -7 -306 -62 -79 -60
-106 -119 -144 -315 -11 -54 -21 -70 -45 -74 -23 -4 -224 -74 -270 -95 -27
-12 -52 -23 -55 -24 -3 0 -41 -19 -85 -41 -116 -57 -238 -133 -291 -179 -7 -5
-33 -26 -58 -45 -133 -100 -324 -311 -434 -477 -75 -115 -189 -333 -174 -333
4 0 2 -4 -4 -8 -9 -6 -58 -127 -70 -172 -2 -8 -13 -46 -24 -85 -11 -38 -22
-79 -24 -90 -36 -183 -45 -244 -51 -355 -12 -207 -17 -277 -21 -305 -3 -16 -7
-41 -9 -55 -12 -87 -86 -300 -106 -308 -5 -2 -9 -9 -9 -16 0 -24 -103 -168
-178 -247 -221 -235 -488 -352 -802 -351 -140 0 -230 15 -355 57 -66 22 -185
78 -185 87 0 4 -6 8 -13 8 -23 0 -168 114 -238 186 -82 86 -145 175 -198 281
-40 78 -95 223 -85 223 3 0 0 8 -5 18 -31 58 -35 397 -5 562 8 46 52 169 75
210 4 8 20 39 33 68 60 125 212 299 346 394 71 51 175 105 261 137 192 72 462
81 679 21 83 -22 188 -72 288 -136 80 -52 107 -74 201 -161 l46 -42 18 57 c10
31 22 66 27 77 5 11 23 54 41 95 61 146 235 457 279 500 27 27 87 119 82 126
-4 5 -27 25 -52 44 -25 19 -47 37 -50 40 -13 14 -151 100 -160 100 -5 0 -10 3
-10 8 0 4 -10 12 -23 18 -12 7 -62 33 -112 58 -49 26 -91 46 -93 46 -1 0 -23
8 -49 20 -25 11 -98 36 -160 56 -124 38 -125 40 -138 122 -9 60 -34 153 -50
189 -21 43 -82 103 -141 138 l-49 29 -195 1 c-193 1 -195 0 -250 -27z"/>
</g>
</svg>
